<!DOCTYPE svg PUBLIC "-//W3C//DTD SVG 20010904//EN" "http://www.w3.org/TR/2001/REC-SVG-20010904/DTD/svg10.dtd">
<svg version="1.0" xmlns="http://www.w3.org/2000/svg" width="14px" height="19px" viewBox="0 0 140 190" preserveAspectRatio="xMidYMid meet">
<g id="layer101" fill="#383536" stroke="none">
 <path d="M30 173 c0 -10 -7 -27 -15 -37 -20 -26 -19 -66 0 -66 10 0 15 -11 15 -35 0 -28 4 -35 20 -35 12 0 20 7 20 18 0 9 15 24 33 32 27 13 33 21 35 54 2 22 1 50 -2 63 -6 20 -12 23 -56 23 -41 0 -50 -3 -50 -17z"/>
 </g>
<g id="layer102" fill="#696767" stroke="none">
 <path d="M30 140 c-24 -48 -27 -68 -5 -50 13 11 15 6 15 -34 0 -25 5 -46 10 -46 6 0 10 9 10 19 0 13 11 23 35 31 32 11 35 15 35 50 0 58 -8 70 -46 70 -29 0 -36 -5 -54 -40z"/>
 </g>
<g id="layer103" fill="#aaa9a9" stroke="none">
 <path d="M44 158 c-12 -28 -6 -148 7 -148 5 0 9 17 10 38 0 30 2 33 9 17 l9 -20 1 20 c1 11 4 14 7 8 7 -19 23 -16 23 5 0 14 2 15 10 2 13 -21 14 39 0 74 -13 35 -62 37 -76 4z"/>
 </g>
<g id="layer104" fill="#f3f4f4" stroke="none">
 <path d="M41 150 c-5 -16 -6 -30 -2 -30 4 0 7 -24 6 -52 -2 -29 0 -40 2 -23 6 40 23 57 24 25 l1 -25 8 25 c4 14 9 18 9 10 1 -12 4 -11 12 4 9 15 13 16 20 5 13 -22 11 35 -3 66 -17 38 -63 35 -77 -5z"/>
 </g>

</svg>